<mxfile host="65bd71144e">
    <diagram id="Qx2UVbU3_cD97Ni96XA-" name="Page-1">
        <mxGraphModel dx="4062" dy="2476" grid="1" gridSize="10" guides="1" tooltips="1" connect="1" arrows="1" fold="1" page="0" pageScale="1" pageWidth="850" pageHeight="1100" math="0" shadow="0">
            <root>
                <mxCell id="0"/>
                <mxCell id="1" parent="0"/>
                <mxCell id="36" value="Valid" style="rounded=0;whiteSpace=wrap;html=1;sketch=1;jiggle=0;dashed=1;verticalAlign=bottom;labelPosition=center;verticalLabelPosition=top;align=center;fontSize=36;" vertex="1" parent="1">
                    <mxGeometry x="1240" y="1120" width="160" height="320" as="geometry"/>
                </mxCell>
                <mxCell id="35" value="Valid" style="rounded=0;whiteSpace=wrap;html=1;sketch=1;jiggle=0;dashed=1;verticalAlign=bottom;labelPosition=center;verticalLabelPosition=top;align=center;fontSize=36;" vertex="1" parent="1">
                    <mxGeometry x="760" y="1117.5" width="320" height="325" as="geometry"/>
                </mxCell>
                <mxCell id="34" value="Valid" style="rounded=0;whiteSpace=wrap;html=1;sketch=1;jiggle=0;dashed=1;verticalAlign=bottom;labelPosition=center;verticalLabelPosition=top;align=center;fontSize=36;" vertex="1" parent="1">
                    <mxGeometry x="760" y="720" width="160" height="320" as="geometry"/>
                </mxCell>
                <mxCell id="33" value="Valid" style="rounded=0;whiteSpace=wrap;html=1;sketch=1;jiggle=0;dashed=1;verticalAlign=bottom;labelPosition=center;verticalLabelPosition=top;align=center;fontSize=36;" vertex="1" parent="1">
                    <mxGeometry x="1080" y="720" width="320" height="320" as="geometry"/>
                </mxCell>
                <mxCell id="32" value="Valid" style="rounded=0;whiteSpace=wrap;html=1;sketch=1;jiggle=0;dashed=1;verticalAlign=bottom;labelPosition=center;verticalLabelPosition=top;align=center;fontSize=36;" vertex="1" parent="1">
                    <mxGeometry x="920" y="320" width="480" height="320" as="geometry"/>
                </mxCell>
                <mxCell id="31" value="Valid" style="rounded=0;whiteSpace=wrap;html=1;sketch=1;jiggle=0;dashed=1;verticalAlign=bottom;labelPosition=center;verticalLabelPosition=top;align=center;fontSize=36;" vertex="1" parent="1">
                    <mxGeometry x="760" y="-80" width="480" height="320" as="geometry"/>
                </mxCell>
                <mxCell id="2" value="Reference Data" style="rounded=0;whiteSpace=wrap;html=1;fontSize=36;" vertex="1" parent="1">
                    <mxGeometry x="-80" y="320" width="720" height="720" as="geometry"/>
                </mxCell>
                <mxCell id="3" value="" style="rounded=0;whiteSpace=wrap;html=1;fillColor=#dae8fc;strokeColor=#6c8ebf;sketch=1;jiggle=0;" vertex="1" parent="1">
                    <mxGeometry x="-80" y="320" width="80" height="230" as="geometry"/>
                </mxCell>
                <mxCell id="4" value="" style="rounded=0;whiteSpace=wrap;html=1;sketch=1;fillColor=#d5e8d4;strokeColor=#82b366;jiggle=0;" vertex="1" parent="1">
                    <mxGeometry y="320" width="80" height="230" as="geometry"/>
                </mxCell>
                <mxCell id="5" value="" style="rounded=0;whiteSpace=wrap;html=1;sketch=1;fillColor=#ffe6cc;strokeColor=#d79b00;jiggle=0;" vertex="1" parent="1">
                    <mxGeometry x="80" y="320" width="80" height="230" as="geometry"/>
                </mxCell>
                <mxCell id="6" value="" style="rounded=0;whiteSpace=wrap;html=1;sketch=1;jiggle=0;fillColor=#fff2cc;strokeColor=#d6b656;" vertex="1" parent="1">
                    <mxGeometry x="160" y="320" width="80" height="230" as="geometry"/>
                </mxCell>
                <mxCell id="7" value="" style="rounded=0;whiteSpace=wrap;html=1;sketch=1;jiggle=0;fillColor=#f8cecc;strokeColor=#b85450;" vertex="1" parent="1">
                    <mxGeometry x="240" y="320" width="80" height="230" as="geometry"/>
                </mxCell>
                <mxCell id="8" value="" style="rounded=0;whiteSpace=wrap;html=1;sketch=1;jiggle=0;fillColor=#e1d5e7;strokeColor=#9673a6;" vertex="1" parent="1">
                    <mxGeometry x="320" y="320" width="80" height="230" as="geometry"/>
                </mxCell>
                <mxCell id="9" value="0" style="rounded=0;whiteSpace=wrap;html=1;fillColor=#dae8fc;strokeColor=#6c8ebf;sketch=1;jiggle=0;fontSize=36;" vertex="1" parent="1">
                    <mxGeometry x="800" y="-40" width="80" height="230" as="geometry"/>
                </mxCell>
                <mxCell id="10" value="1" style="rounded=0;whiteSpace=wrap;html=1;sketch=1;fillColor=#d5e8d4;strokeColor=#82b366;jiggle=0;fontSize=36;" vertex="1" parent="1">
                    <mxGeometry x="960" y="-40" width="80" height="230" as="geometry"/>
                </mxCell>
                <mxCell id="11" value="2" style="rounded=0;whiteSpace=wrap;html=1;sketch=1;fillColor=#ffe6cc;strokeColor=#d79b00;jiggle=0;fontSize=36;" vertex="1" parent="1">
                    <mxGeometry x="1120" y="-40" width="80" height="230" as="geometry"/>
                </mxCell>
                <mxCell id="12" value="" style="rounded=0;whiteSpace=wrap;html=1;sketch=1;jiggle=0;fontSize=36;" vertex="1" parent="1">
                    <mxGeometry x="1280" y="-40" width="80" height="230" as="geometry"/>
                </mxCell>
                <mxCell id="13" value="" style="endArrow=none;dashed=1;html=1;fontSize=36;" edge="1" parent="1">
                    <mxGeometry width="50" height="50" relative="1" as="geometry">
                        <mxPoint x="720" y="280" as="sourcePoint"/>
                        <mxPoint x="1440" y="280" as="targetPoint"/>
                    </mxGeometry>
                </mxCell>
                <mxCell id="14" value="" style="rounded=0;whiteSpace=wrap;html=1;fillColor=#dae8fc;strokeColor=#6c8ebf;sketch=1;jiggle=0;fontSize=36;" vertex="1" parent="1">
                    <mxGeometry x="800" y="360" width="80" height="230" as="geometry"/>
                </mxCell>
                <mxCell id="15" value="0" style="rounded=0;whiteSpace=wrap;html=1;sketch=1;fillColor=#d5e8d4;strokeColor=#82b366;jiggle=0;fontSize=36;" vertex="1" parent="1">
                    <mxGeometry x="960" y="360" width="80" height="230" as="geometry"/>
                </mxCell>
                <mxCell id="16" value="1" style="rounded=0;whiteSpace=wrap;html=1;sketch=1;fillColor=#ffe6cc;strokeColor=#d79b00;jiggle=0;fontSize=36;" vertex="1" parent="1">
                    <mxGeometry x="1120" y="360" width="80" height="230" as="geometry"/>
                </mxCell>
                <mxCell id="17" value="2" style="rounded=0;whiteSpace=wrap;html=1;sketch=1;jiggle=0;fillColor=#fff2cc;strokeColor=#d6b656;fontSize=36;" vertex="1" parent="1">
                    <mxGeometry x="1280" y="360" width="80" height="230" as="geometry"/>
                </mxCell>
                <mxCell id="18" value="" style="endArrow=none;dashed=1;html=1;fontSize=36;" edge="1" parent="1">
                    <mxGeometry width="50" height="50" relative="1" as="geometry">
                        <mxPoint x="720" y="680" as="sourcePoint"/>
                        <mxPoint x="1440" y="680" as="targetPoint"/>
                    </mxGeometry>
                </mxCell>
                <mxCell id="20" value="" style="rounded=0;whiteSpace=wrap;html=1;sketch=1;fillColor=#d5e8d4;strokeColor=#82b366;jiggle=0;fontSize=36;" vertex="1" parent="1">
                    <mxGeometry x="960" y="760" width="80" height="230" as="geometry"/>
                </mxCell>
                <mxCell id="21" value="0" style="rounded=0;whiteSpace=wrap;html=1;sketch=1;fillColor=#ffe6cc;strokeColor=#d79b00;jiggle=0;fontSize=36;" vertex="1" parent="1">
                    <mxGeometry x="1120" y="760" width="80" height="230" as="geometry"/>
                </mxCell>
                <mxCell id="22" value="1" style="rounded=0;whiteSpace=wrap;html=1;sketch=1;jiggle=0;fillColor=#fff2cc;strokeColor=#d6b656;fontSize=36;" vertex="1" parent="1">
                    <mxGeometry x="1280" y="760" width="80" height="230" as="geometry"/>
                </mxCell>
                <mxCell id="23" value="" style="endArrow=none;dashed=1;html=1;fontSize=36;" edge="1" parent="1">
                    <mxGeometry width="50" height="50" relative="1" as="geometry">
                        <mxPoint x="720" y="1080" as="sourcePoint"/>
                        <mxPoint x="1440" y="1080" as="targetPoint"/>
                    </mxGeometry>
                </mxCell>
                <mxCell id="26" value="" style="rounded=0;whiteSpace=wrap;html=1;sketch=1;fillColor=#ffe6cc;strokeColor=#d79b00;jiggle=0;fontSize=36;" vertex="1" parent="1">
                    <mxGeometry x="1120" y="1160" width="80" height="230" as="geometry"/>
                </mxCell>
                <mxCell id="27" value="0" style="rounded=0;whiteSpace=wrap;html=1;sketch=1;jiggle=0;fillColor=#fff2cc;strokeColor=#d6b656;fontSize=36;" vertex="1" parent="1">
                    <mxGeometry x="1280" y="1160" width="80" height="230" as="geometry"/>
                </mxCell>
                <mxCell id="28" value="2" style="rounded=0;whiteSpace=wrap;html=1;sketch=1;jiggle=0;fillColor=#f8cecc;strokeColor=#b85450;fontSize=36;" vertex="1" parent="1">
                    <mxGeometry x="800" y="760" width="80" height="230" as="geometry"/>
                </mxCell>
                <mxCell id="29" value="1" style="rounded=0;whiteSpace=wrap;html=1;sketch=1;jiggle=0;fillColor=#f8cecc;strokeColor=#b85450;fontSize=36;" vertex="1" parent="1">
                    <mxGeometry x="800" y="1160" width="80" height="230" as="geometry"/>
                </mxCell>
                <mxCell id="30" value="2" style="rounded=0;whiteSpace=wrap;html=1;sketch=1;jiggle=0;fillColor=#e1d5e7;strokeColor=#9673a6;fontSize=36;" vertex="1" parent="1">
                    <mxGeometry x="960" y="1160" width="80" height="230" as="geometry"/>
                </mxCell>
            </root>
        </mxGraphModel>
    </diagram>
</mxfile>